<svg width="528" height="329" viewBox="0 0 528 329" fill="none" xmlns="http://www.w3.org/2000/svg">
<path d="M520.154 160.916L514.109 158.192C511.244 156.904 508.817 154.798 507.127 152.148L420.848 16.4416C407.41 1.37066 385.725 -3.62835 366.937 4.03115L343.136 13.8497C336.185 16.716 331.704 24.138 333.41 31.4808C335.585 40.8453 345.358 45.6595 353.91 42.165L378.379 32.0667C385.33 29.2003 393.329 31.0321 398.347 36.6487L451.031 135.985C432.58 132.221 413.228 130.189 393.097 130.189C365.484 130.189 339.118 133.789 314.743 140.889C291.421 147.719 284.097 154.561 264.029 154.561C243.961 154.561 236.637 147.719 213.294 140.883C188.929 133.783 162.574 130.189 134.95 130.189C114.803 130.189 95.4361 132.226 76.964 136L129.653 36.6539C134.666 31.0373 142.67 29.2003 149.62 32.072L174.09 42.1703C182.642 45.6648 192.41 40.8506 194.584 31.4861C196.291 24.1433 191.815 16.7213 184.864 13.8549L161.063 4.03644C142.275 -3.62306 120.59 1.37594 107.152 16.4468L20.8681 152.153C19.1779 154.809 16.7556 156.91 13.8911 158.198L7.84601 160.922C3.07 163.07 0 167.831 0 173.073V189.184C0 194.146 2.74874 198.696 7.13509 200.993L16.4923 205.891C21.2209 208.367 24.075 213.297 24.0698 218.645V218.729C24.0487 265.705 53.3997 308.669 98.0637 322.864C173.453 346.819 243.108 290.769 243.108 218.729C243.108 217.484 243.087 216.238 243.04 214.992C242.618 202.824 252.386 192.499 264.534 192.673C265.219 192.684 265.904 192.71 266.588 192.763C277.52 193.55 285.424 203.801 285.013 214.776C284.965 216.09 284.934 217.41 284.934 218.729C284.934 290.763 354.589 346.819 429.984 322.864C474.653 308.669 503.999 265.705 503.978 218.729V218.64C503.978 213.276 506.837 208.33 511.581 205.849L520.86 200.987C525.251 198.691 528 194.136 528 189.174V173.063C528 167.816 524.925 163.059 520.154 160.911V160.916ZM121.738 305.491C113.882 304.457 106.384 302.303 99.3539 299.268L101.423 278.981C101.423 278.981 101.434 278.96 101.444 278.96L131.096 266.196C133.729 265.066 135.003 261.963 133.929 259.302L117.074 228.977L158.383 218.08C160.973 217.214 162.321 214.395 161.563 211.714C160.81 209.032 158.04 207.391 155.371 208.05L104.309 219.537C102.877 219.854 101.671 220.799 100.907 222.092C100.154 223.391 100.054 224.969 100.481 226.315L109.153 252.054C109.153 252.054 109.153 252.086 109.132 252.091L82.6088 258.283C81.1555 258.621 79.9128 259.555 79.1808 260.859L73.4569 285.98C58.5444 269.679 45.7013 239.85 46.2384 216.639C46.5069 205.158 48.9713 194.109 53.4419 183.853C57.0489 175.575 64.7158 169.88 73.4569 167.699C92.6926 162.912 113.313 160.489 134.95 160.489C155.297 160.489 174.796 162.642 193.079 166.902C201.73 168.919 209.392 174.409 213.104 182.501C218.27 193.755 220.961 205.992 220.961 218.745C220.961 270.894 175.18 312.538 121.744 305.502L121.738 305.491ZM389.759 306.141C342.609 303.623 304.996 261.878 307.182 214.596C307.698 203.41 310.304 192.668 314.854 182.691C318.582 174.514 326.28 168.914 335.016 166.881C342.878 165.055 356.82 162.629 367.548 162.629L377.363 178.442C377.363 178.442 377.374 178.458 377.374 178.468L370.676 210.109C370.086 212.917 371.871 215.752 374.662 216.407L404.076 223.338C404.076 223.338 404.103 223.359 404.103 223.375L394.156 260.215C393.371 262.839 394.893 265.563 397.51 266.486C400.132 267.415 403.071 266.096 404.071 263.53L424.154 215.087C424.723 213.73 424.655 212.2 424.028 210.827C423.412 209.46 422.175 208.467 420.837 208.04L394.861 200.301C394.861 200.301 394.835 200.28 394.84 200.264L405.087 174.974C405.651 173.585 405.609 172.028 404.966 170.677L400.248 160.684C419.273 161.164 437.498 163.44 454.575 167.689C464.027 170.043 471.72 176.71 475.411 185.748C479.634 196.099 481.83 207.211 481.83 218.74C481.83 268.587 440.052 308.833 389.759 306.146V306.141Z" fill="#004834"/>
</svg>
