<svg width="16" height="15" viewBox="0 0 16 15" fill="none" xmlns="http://www.w3.org/2000/svg">
<g clip-path="url(#clip0_5_6071)">
<path d="M2.67676 9.37402H4.23925C4.498 9.37402 4.708 9.16402 4.708 8.90527V7.34277C4.708 7.08402 4.498 6.87402 4.23925 6.87402H2.67676C2.41801 6.87402 2.20801 7.08402 2.20801 7.34277V8.90527C2.20801 9.16402 2.41801 9.37402 2.67676 9.37402Z" fill="#009B6F"/>
<path d="M2.67676 13.124H4.23925C4.498 13.124 4.708 12.914 4.708 12.6553V11.0928C4.708 10.834 4.498 10.624 4.23925 10.624H2.67676C2.41801 10.624 2.20801 10.834 2.20801 11.0928V12.6553C2.20801 12.914 2.41801 13.124 2.67676 13.124Z" fill="#009B6F"/>
<path d="M7.05273 9.37402H8.61523C8.87398 9.37402 9.08398 9.16402 9.08398 8.90527V7.34277C9.08398 7.08402 8.87398 6.87402 8.61523 6.87402H7.05273C6.79398 6.87402 6.58398 7.08402 6.58398 7.34277V8.90527C6.58398 9.16402 6.79398 9.37402 7.05273 9.37402Z" fill="#009B6F"/>
<path d="M7.05273 13.124H8.61523C8.87398 13.124 9.08398 12.914 9.08398 12.6553V11.0928C9.08398 10.834 8.87398 10.624 8.61523 10.624H7.05273C6.79398 10.624 6.58398 10.834 6.58398 11.0928V12.6553C6.58398 12.914 6.79398 13.124 7.05273 13.124Z" fill="#009B6F"/>
<path d="M11.4258 9.37402H12.9883C13.247 9.37402 13.457 9.16402 13.457 8.90527V7.34277C13.457 7.08402 13.247 6.87402 12.9883 6.87402H11.4258C11.167 6.87402 10.957 7.08402 10.957 7.34277V8.90527C10.957 9.16402 11.167 9.37402 11.4258 9.37402Z" fill="#009B6F"/>
<path d="M13.458 1.875H12.833V0.625C12.833 0.28 12.553 0 12.208 0H11.583C11.238 0 10.958 0.28 10.958 0.625V1.875H4.70801V0.625C4.70801 0.28 4.42801 0 4.08301 0H3.45801C3.11301 0 2.83301 0.28 2.83301 0.625V1.875H2.20801C1.17426 1.875 0.333008 2.71625 0.333008 3.75V13.125C0.333008 14.1587 1.17426 15 2.20801 15H13.458C14.4918 15 15.333 14.1587 15.333 13.125V3.75C15.333 2.71625 14.4918 1.875 13.458 1.875ZM14.083 13.125C14.083 13.4694 13.8024 13.75 13.458 13.75H2.20801C1.86363 13.75 1.58301 13.4694 1.58301 13.125V6.275H14.083V13.125Z" fill="#009B6F"/>
</g>
<defs>
<clipPath id="clip0_5_6071">
<rect width="15" height="15" fill="white" transform="translate(0.333008)"/>
</clipPath>
</defs>
</svg>
