<svg width="20" height="21" viewBox="0 0 20 21" fill="none" xmlns="http://www.w3.org/2000/svg">
<g clip-path="url(#clip0_5_1632)">
<path d="M19.5516 16.5469L16.4629 13.4579C15.8477 12.8452 14.8289 12.8638 14.1923 13.5006L12.6362 15.0564C12.5379 15.0022 12.4361 14.9456 12.3291 14.8856C11.3465 14.3411 10.0015 13.5948 8.58628 12.1785C7.16683 10.7592 6.41986 9.41224 5.87372 8.42895C5.81609 8.32478 5.76087 8.22434 5.70634 8.12896L6.75071 7.08615L7.26416 6.57207C7.90178 5.93428 7.91936 4.91577 7.30559 4.30125L4.2169 1.21187C3.60313 0.598215 2.58387 0.616831 1.94626 1.25462L1.07576 2.13012L1.09955 2.15373C0.807657 2.52618 0.563746 2.95574 0.382234 3.41897C0.214915 3.85991 0.110743 4.28068 0.0631095 4.70231C-0.344731 8.0834 1.20033 11.1735 5.39342 15.3666C11.1896 21.1623 15.8605 20.7245 16.062 20.7031C16.5009 20.6507 16.9214 20.5458 17.3489 20.3798C17.8081 20.2004 18.2374 19.9569 18.6096 19.6656L18.6286 19.6825L19.5105 18.819C20.1468 18.1813 20.1651 17.1624 19.5516 16.5469Z" fill="white"/>
</g>
<defs>
<clipPath id="clip0_5_1632">
<rect width="20" height="20" fill="white" transform="translate(0 0.741211)"/>
</clipPath>
</defs>
</svg>
