<?xml version="1.0" encoding="utf-8"?>
<!-- Generator: Adobe Illustrator 16.0.0, SVG Export Plug-In . SVG Version: 6.00 Build 0)  -->
<!DOCTYPE svg PUBLIC "-//W3C//DTD SVG 1.1//EN" "http://www.w3.org/Graphics/SVG/1.1/DTD/svg11.dtd">
<svg version="1.1" id="Layer_1" xmlns="http://www.w3.org/2000/svg" xmlns:xlink="http://www.w3.org/1999/xlink" x="0px" y="0px"
	 width="15px" height="15px" viewBox="0 2.5 15 15" enable-background="new 0 2.5 15 15" xml:space="preserve">
<path fill="#009B6F" d="M7.5,2.5C3.358,2.5,0,5.857,0,10s3.358,7.5,7.5,7.5c4.143,0,7.5-3.357,7.5-7.5S11.643,2.5,7.5,2.5z
	 M9.772,12.273c-0.22,0.219-0.575,0.219-0.796,0l-1.875-1.875C6.996,10.293,6.937,10.149,6.937,10V7
	c0-0.311,0.251-0.563,0.563-0.563S8.063,6.689,8.063,7v2.768l1.709,1.709C9.992,11.697,9.992,12.053,9.772,12.273L9.772,12.273z"/>
</svg>
