<svg width="30" height="28" viewBox="0 0 30 28" fill="none" xmlns="http://www.w3.org/2000/svg">
<g clip-path="url(#clip0_5_1816)">
<path d="M15.7528 7.03298C15.7528 4.07109 12.8629 1.66681 9.29543 1.66681C5.72797 1.66681 2.83204 4.0651 2.83204 7.02698C2.83204 9.98886 5.72198 12.3931 9.28943 12.3931C12.8569 12.3931 15.7528 9.99486 15.7528 7.02698V7.03298ZM10.3866 9.83298C10.2787 9.64711 10.1228 9.11349 9.93097 8.30407C9.7571 7.48266 9.4753 7.26081 8.86973 7.24882H8.42005V9.83298H6.9451V3.34561C7.42476 3.26767 8.13825 3.20771 8.92969 3.20771C9.90699 3.20771 10.5905 3.35161 11.0582 3.72334C11.4479 4.03512 11.6637 4.49679 11.6637 5.09636C11.6637 5.93576 11.0702 6.51135 10.5006 6.7152V6.74518C10.9562 6.93105 11.2141 7.36874 11.3759 7.9743C11.5798 8.71777 11.7836 9.57516 11.9096 9.82698H10.3866V9.83298ZM9.09157 4.31092C8.73183 4.31092 8.52797 4.3409 8.42005 4.35889V6.17559H9.00763C9.7511 6.17559 10.1888 5.80385 10.1888 5.22827C10.1888 4.6227 9.78108 4.32291 9.09757 4.31092H9.09157ZM20.7053 11.6497C17.1378 11.6497 14.2419 14.048 14.2419 17.0158C14.2419 19.9777 17.1318 22.382 20.6993 22.382C24.2667 22.382 27.1627 19.9837 27.1627 17.0158C27.1627 14.054 24.2727 11.6497 20.7053 11.6497ZM23.3614 19.8158H19.2543V13.2385H20.7472V18.5627H23.3614V19.8098V19.8158ZM29.7828 17.5255C29.7828 13.3645 25.7177 9.98287 20.7053 9.98287C19.8959 9.98287 19.1104 10.0788 18.3669 10.2467C18.3669 9.49722 18.3669 8.13619 18.3669 7.54261C18.3729 3.37559 14.3078 0 9.29543 0C4.27701 0 0.211914 3.37559 0.211914 7.53662C0.211914 8.20214 0.211914 9.80899 0.211914 10.4745C0.211914 14.3537 3.7374 17.5435 8.27615 17.9632L11.6457 20.7152C11.8076 24.7563 15.7948 28 20.7053 28C25.7177 28 29.7828 24.6244 29.7888 20.4634C29.7888 19.7979 29.7888 18.191 29.7888 17.5255H29.7828ZM9.87101 14.1199V16.4283C9.66716 16.4403 9.46331 16.4522 9.25346 16.4522C8.9057 16.4522 8.56994 16.4283 8.23418 16.3923V14.0779C6.97508 13.934 5.80592 13.5503 4.81063 12.9687V15.331C4.19907 14.9893 3.64746 14.5756 3.1738 14.1079V11.6916C2.11256 10.5824 1.47701 9.18544 1.47701 7.66253C1.47701 4.08308 4.97251 1.18116 9.28343 1.18715C13.5944 1.18715 17.0839 4.08908 17.0839 7.66852C17.0839 8.9576 16.6282 10.1507 15.8427 11.158C14.8115 11.7036 13.9181 12.4111 13.2226 13.2445C12.2213 13.7362 11.0821 14.042 9.86502 14.1199H9.87101ZM26.3472 22.1182V24.4685C25.8616 24.8762 25.31 25.23 24.7104 25.5238V23.2034C23.6971 23.7071 22.534 24.0308 21.2869 24.1028V26.4111C21.083 26.4231 20.8792 26.4351 20.6693 26.4351C20.3215 26.4351 19.9858 26.4111 19.65 26.3752V24.0608C18.3909 23.9169 17.2218 23.5332 16.2265 22.9516V25.3139C15.6149 24.9722 15.0633 24.5585 14.5896 24.0908V21.6745C13.5284 20.5653 12.8929 19.1683 12.8929 17.6454C12.8929 17.5555 12.9048 17.4655 12.9108 17.3756C12.9348 16.8899 13.0248 16.4163 13.1687 15.9606C13.1687 15.9606 13.1687 15.9546 13.1687 15.9486C13.2166 15.7987 13.2706 15.6488 13.3365 15.5049C13.6843 14.6775 14.2299 13.934 14.9194 13.2985C15.5789 12.6929 16.3764 12.1953 17.2697 11.8295C17.3057 11.8176 17.3357 11.7996 17.3717 11.7876C17.6595 11.6737 17.9592 11.5717 18.265 11.4878C19.0325 11.2779 19.8479 11.164 20.6993 11.164C25.0102 11.164 28.4997 14.066 28.4997 17.6454C28.4997 19.3782 27.6723 20.949 26.3412 22.1122L26.3472 22.1182Z" fill="#004834"/>
</g>
<defs>
<clipPath id="clip0_5_1816">
<rect width="29.5769" height="28" fill="white" transform="translate(0.211914)"/>
</clipPath>
</defs>
</svg>
