<svg width="24" height="24" viewBox="0 0 24 24" fill="none" xmlns="http://www.w3.org/2000/svg">
<path d="M23.9821 5.17022C23.9821 5.14279 24.001 5.1161 23.9998 5.08899L16.6758 12.146L23.991 18.9776C23.9953 18.9288 23.9821 18.8796 23.9821 18.8298V5.17022Z" fill="#009B6F"/>
<path d="M15.5579 13.2321L12.568 16.1087C12.4167 16.2542 12.2213 16.3272 12.0258 16.3272C11.8343 16.3272 11.6429 16.2574 11.4927 16.1173L8.51093 13.3388L1.14795 20.4359C1.32698 20.5002 1.51915 20.5502 1.7204 20.5502H22.3313C22.6301 20.5502 22.9104 20.4592 23.1541 20.3234L15.5579 13.2321Z" fill="#009B6F"/>
<path d="M12.0173 14.4683L23.1947 3.70116C22.9416 3.5507 22.6471 3.44977 22.3313 3.44977H1.72045C1.30931 3.44977 0.932578 3.60941 0.63916 3.85288L12.0173 14.4683Z" fill="#009B6F"/>
<path d="M0 5.4325V18.8296C0 18.9834 0.0353478 19.1317 0.0737194 19.2734L7.34535 12.271L0 5.4325Z" fill="#009B6F"/>
</svg>
