<svg width="15" height="16" viewBox="0 0 15 16" fill="none" xmlns="http://www.w3.org/2000/svg">
<g clip-path="url(#clip0_5_6702)">
<path d="M2.18426 3.8064H1.61546C0.72334 3.8064 0 4.52971 0 5.42186V13.4866C0 14.3788 0.72334 15.1021 1.61546 15.1021H2.18426C3.07641 15.1021 3.79969 14.3788 3.79969 13.4866V5.42186C3.79969 4.52971 3.07641 3.8064 2.18426 3.8064Z" fill="#009B6F"/>
<path d="M13.8694 5.99087V0.898315H5.63681V5.99087C4.96913 6.31478 4.50586 6.99277 4.50586 7.78419V13.0114C4.50586 14.1161 5.40144 15.0117 6.50616 15.0117H13C14.1048 15.0117 15.0004 14.1161 15.0004 13.0114V7.78419C15.0003 6.99277 14.5368 6.31478 13.8694 5.99087ZM6.45103 1.71253H13.0552V7.05001H6.45103V1.71253ZM6.36062 10.176V8.68323H13.1458V10.176H6.36062ZM12.3591 13.5685C11.872 13.5685 11.4771 13.1736 11.4771 12.6865C11.4771 12.1993 11.872 11.8044 12.3591 11.8044C12.8463 11.8044 13.2412 12.1993 13.2412 12.6865C13.2412 13.1736 12.8463 13.5685 12.3591 13.5685Z" fill="#009B6F"/>
<path d="M12.0875 3.11938H7.33789V3.59435H12.0875V3.11938Z" fill="#009B6F"/>
<path d="M10.3234 4.61206H7.33789V5.08702H10.3234V4.61206Z" fill="#009B6F"/>
</g>
<defs>
<clipPath id="clip0_5_6702">
<rect width="15" height="15" fill="white" transform="translate(0 0.500244)"/>
</clipPath>
</defs>
</svg>
