<svg width="50" height="28" viewBox="0 0 50 28" fill="none" xmlns="http://www.w3.org/2000/svg">
<g clip-path="url(#clip0_5_1808)">
<path d="M49.3267 16.4667C49.1122 15.2832 48.437 14.465 47.4759 14.2426C46.2606 13.9487 41.725 13.5118 37.658 13.5118C34.5363 13.5118 32.3043 13.766 31.0334 14.2665C29.5241 14.8622 27.3318 15.2038 25.0124 15.2038C22.6929 15.2038 20.4847 14.8622 18.9755 14.2665C17.6966 13.7581 15.4566 13.5039 12.319 13.5039C8.26002 13.5039 3.74031 13.9408 2.53293 14.2267C1.5718 14.4571 0.888676 15.2753 0.674208 16.4667C0.451797 17.6979 0.729811 19.3104 1.55591 19.8665C1.69095 20.0174 1.87364 20.7164 2.00073 21.2327C2.32641 22.5116 2.77123 24.2591 3.98655 25.7683C5.17009 27.2378 7.91052 27.9845 12.1363 27.9845C14.0189 27.9845 15.7426 27.8336 16.8546 27.7144C19.468 27.4284 21.5968 25.7127 22.8439 22.9008C23.0107 22.5195 23.1219 22.1462 23.2251 21.8126C23.4714 20.9865 23.5349 20.9547 23.6541 20.9547H26.1721C26.3786 20.9547 26.4819 21.0977 26.8075 22.0191C26.9108 22.305 27.0141 22.6148 27.1491 22.9087C28.3962 25.7206 30.525 27.4364 33.1383 27.7223C34.2583 27.8494 35.9899 27.9924 37.8725 27.9924C42.0745 27.9924 44.807 27.2458 45.9985 25.7762C47.2138 24.267 47.6586 22.5116 47.9843 21.2406C48.1114 20.7243 48.2941 20.0253 48.4053 19.8982C49.2631 19.3184 49.5412 17.6979 49.3187 16.4667H49.3267ZM19.0867 20.9865C18.8404 22.6387 17.6728 24.2114 14.3287 24.2114C10.9925 24.2114 8.44272 24.7833 7.21151 23.0438C5.98031 21.3042 5.2813 19.3184 5.98825 18.2143C6.73492 17.0387 14.1142 16.9513 16.4416 17.547C18.5386 18.0792 19.4839 18.4605 19.0867 20.9944V20.9865ZM42.7179 23.0597C41.4867 24.7992 38.9369 24.2273 35.6007 24.2273C32.2646 24.2273 31.0969 22.6545 30.8507 20.9944C30.4535 18.4605 31.3987 18.0872 33.4958 17.555C35.8152 16.9672 43.2024 17.0545 43.9491 18.2301C44.6481 19.3422 43.9491 21.3201 42.7179 23.0597Z" fill="#004834"/>
<path d="M45.8077 11.2876L38.9527 1.90656C36.8557 -0.9689 32.4313 -0.492304 30.9936 2.76443L30.8506 3.08216C31.4304 3.82089 32.5266 3.89238 33.2018 3.22514C33.726 2.70883 34.5839 2.77238 35.0287 3.36018L40.5652 10.803L45.8077 11.2796V11.2876Z" fill="#004834"/>
<path d="M4.19349 11.2714L11.0485 1.89835C13.1455 -0.977108 17.5699 -0.492569 19.0077 2.76417L19.1507 3.0819C18.5708 3.82062 17.4746 3.89211 16.7994 3.22488C16.2752 2.70857 15.4173 2.77211 14.9725 3.35991L9.4281 10.8028L4.18555 11.2793L4.19349 11.2714Z" fill="#004834"/>
</g>
<defs>
<clipPath id="clip0_5_1808">
<rect width="48.7955" height="28" fill="white" transform="translate(0.602539)"/>
</clipPath>
</defs>
</svg>
