<svg width="64" height="64" viewBox="0 0 64 64" fill="none" xmlns="http://www.w3.org/2000/svg">
<path d="M13.6849 0H14.5099C15.7199 0.473333 16.3366 1.47 16.3599 2.99C16.3899 4.605 16.7049 7.45 15.8699 8.725C14.7849 10.385 11.9199 9.705 11.7349 7.45C11.7286 7.36157 11.6889 7.27884 11.6239 7.21852C11.559 7.1582 11.4735 7.12477 11.3849 7.125H9.48489C9.24156 7.125 9.11989 7.24667 9.11989 7.49C9.13989 11.44 8.66989 16.31 9.71989 19.82C13.7849 33.4 33.3499 33.18 36.6899 19.335C37.4749 16.08 37.1299 11.225 37.1249 7.375C37.1249 7.20833 37.0399 7.125 36.8699 7.125H34.6249C34.5635 7.12469 34.504 7.14746 34.4579 7.18896C34.4118 7.23046 34.3822 7.28778 34.3749 7.35C34.0149 10.65 29.7749 10.455 29.7549 6.615C29.7399 4.44 28.9349 0.88 31.6749 0H32.5049C33.6849 0.406667 34.3182 1.16667 34.4049 2.28C34.4149 2.42667 34.4932 2.5 34.6399 2.5H39.6199C39.9022 2.49999 40.1817 2.55584 40.4423 2.66432C40.7029 2.7728 40.9395 2.93178 41.1384 3.13209C41.3373 3.33239 41.4947 3.57008 41.6013 3.83145C41.708 4.09282 41.7619 4.37271 41.7599 4.655C41.7366 7.89167 41.7382 11.2183 41.7649 14.635C41.8449 25.13 35.9749 32.465 25.4949 34.55C25.3316 34.5833 25.2499 34.6833 25.2499 34.85C25.2499 38.4167 25.2466 41.9833 25.2399 45.55C25.2332 48.09 25.4566 50.03 25.9099 51.37C30.1849 64.015 48.4899 60.715 48.5899 47.12C48.6199 43.19 48.6316 40.385 48.6249 38.705C48.6245 38.6279 48.5997 38.5527 48.554 38.4899C48.5083 38.4271 48.4439 38.38 48.3699 38.355C41.5999 36.12 40.2199 27.59 45.7849 23.195C49.3249 20.39 55.2149 21.245 57.8749 25.005C61.4299 30.04 59.1499 36.08 53.4849 38.4C53.4151 38.4295 53.3557 38.4789 53.3139 38.5421C53.2721 38.6052 53.2498 38.6793 53.2499 38.755C53.2549 42.97 53.6049 48.19 52.6899 51.75C50.9199 58.64 44.8549 63.465 37.7049 64H36.0849C26.0649 62.73 20.6949 56.18 20.5549 46.425C20.4982 42.5383 20.4966 38.6567 20.5499 34.78C20.5532 34.6133 20.4732 34.5117 20.3099 34.475C10.1749 32.245 4.41989 25.03 4.48989 14.805C4.51322 11.6817 4.51489 8.56333 4.49489 5.45C4.46489 1.335 8.50989 2.59 11.4299 2.46C11.5966 2.45333 11.6882 2.36667 11.7049 2.2C11.8249 1.05333 12.4849 0.32 13.6849 0ZM54.8499 30.13C54.8499 29.089 54.4364 28.0907 53.7003 27.3546C52.9642 26.6185 51.9659 26.205 50.9249 26.205C49.8839 26.205 48.8856 26.6185 48.1495 27.3546C47.4134 28.0907 46.9999 29.089 46.9999 30.13C46.9999 30.6454 47.1014 31.1558 47.2987 31.632C47.4959 32.1082 47.785 32.5409 48.1495 32.9054C48.514 33.2699 48.9467 33.559 49.4229 33.7562C49.8991 33.9535 50.4095 34.055 50.9249 34.055C51.4403 34.055 51.9507 33.9535 52.4269 33.7562C52.9031 33.559 53.3358 33.2699 53.7003 32.9054C54.0648 32.5409 54.3539 32.1082 54.5511 31.632C54.7484 31.1558 54.8499 30.6454 54.8499 30.13Z" fill="white"/>
</svg>
