<svg width="64" height="64" viewBox="0 0 64 64" fill="none" xmlns="http://www.w3.org/2000/svg">
<g clip-path="url(#clip0_5_5438)">
<path d="M64.002 9.16V58.65C63.607 59.565 62.997 60.12 61.917 60.12C45.5836 60.1267 29.3553 60.1283 13.232 60.125C12.7068 60.125 12.2032 59.9164 11.8319 59.5451C11.4606 59.1737 11.252 58.6701 11.252 58.145V52.9C11.252 52.7333 11.1686 52.6483 11.002 52.645C7.89195 52.6017 4.81029 52.6 1.75695 52.64C0.946953 52.65 0.361953 52.13 0.00195312 51.08V50.205C11.407 38.325 11.482 25.045 11.247 9.53C11.243 9.28126 11.2887 9.03422 11.3814 8.80327C11.474 8.57231 11.6119 8.36206 11.7869 8.18476C11.9618 8.00746 12.1704 7.86666 12.4005 7.77056C12.6306 7.67446 12.8775 7.62497 13.127 7.625H22.392C22.4334 7.62521 22.4744 7.61605 22.5119 7.59817C22.5494 7.58028 22.5826 7.55413 22.6089 7.5216C22.6352 7.48906 22.6541 7.45096 22.6641 7.41004C22.6741 7.36912 22.6751 7.32641 22.667 7.285C22.407 5.945 22.652 4.15 24.302 3.935C26.422 3.655 26.387 5.92 26.377 7.37C26.377 7.54 26.4603 7.625 26.627 7.625H35.497C35.6636 7.625 35.747 7.54333 35.747 7.38C35.757 6.58 35.627 5.6 35.977 4.935C37.332 2.4 39.862 4.505 39.472 7C39.4596 7.07727 39.4643 7.1563 39.4855 7.23161C39.5067 7.30692 39.5441 7.37671 39.595 7.43616C39.6459 7.4956 39.7091 7.54328 39.7802 7.57588C39.8513 7.60849 39.9287 7.62525 40.007 7.625H48.752C48.922 7.625 49.0053 7.54 49.002 7.37C48.992 6.51 48.872 5.545 49.297 4.82C50.852 2.17 53.257 4.97 52.687 7.295C52.637 7.49833 52.717 7.60166 52.927 7.605C56.0603 7.645 59.1653 7.65 62.242 7.62C63.0553 7.61 63.642 8.12333 64.002 9.16ZM23.487 14.815C22.412 14.22 22.642 12.635 22.622 11.62C22.6186 11.4567 22.5353 11.375 22.372 11.375H15.252C15.1856 11.375 15.1221 11.4013 15.0752 11.4482C15.0283 11.4951 15.002 11.5587 15.002 11.625V18.625C15.002 18.6913 15.0283 18.7549 15.0752 18.8018C15.1221 18.8487 15.1856 18.875 15.252 18.875H59.877C60.127 18.875 60.252 18.75 60.252 18.5V11.625C60.252 11.4583 60.1686 11.375 60.002 11.375H52.992C52.802 11.375 52.717 11.47 52.737 11.66C52.832 12.635 52.867 13.965 52.067 14.67C51.162 15.465 49.732 15.115 49.222 14.075C48.882 13.385 49.007 12.43 48.997 11.62C48.997 11.4567 48.9136 11.375 48.747 11.375H40.007C39.9287 11.3747 39.8513 11.3915 39.7802 11.4241C39.7091 11.4567 39.6459 11.5044 39.595 11.5638C39.5441 11.6233 39.5067 11.6931 39.4855 11.7684C39.4643 11.8437 39.4596 11.9227 39.472 12C39.862 14.495 37.332 16.605 35.977 14.065C35.627 13.4 35.757 12.42 35.747 11.62C35.747 11.4567 35.6636 11.375 35.497 11.375H26.627C26.4636 11.375 26.3803 11.4583 26.377 11.625C26.367 13.27 26.072 16.25 23.487 14.815ZM14.947 22.905C14.352 32.435 12.062 40.69 6.36695 48.605C6.24029 48.7783 6.28529 48.865 6.50195 48.865L49.772 48.88C49.867 48.8801 49.9614 48.8612 50.0498 48.8243C50.1382 48.7874 50.2188 48.7333 50.287 48.665C56.752 42.275 59.942 31.79 60.057 22.93C60.0603 22.7267 59.9603 22.625 59.757 22.625H15.247C15.057 22.625 14.957 22.7183 14.947 22.905ZM60.062 40.46C58.1886 44.88 55.547 48.7817 52.137 52.165C52.0203 52.2817 51.882 52.3633 51.722 52.41C51.327 52.525 51.117 52.625 50.692 52.625C38.922 52.6217 27.1453 52.6217 15.362 52.625C15.2665 52.625 15.1749 52.6629 15.1074 52.7304C15.0399 52.798 15.002 52.8895 15.002 52.985V56C15.002 56.25 15.127 56.375 15.377 56.375H59.877C60.127 56.375 60.252 56.25 60.252 56V40.5C60.2512 40.4777 60.2429 40.4562 60.2286 40.4391C60.2142 40.422 60.1945 40.4102 60.1726 40.4056C60.1507 40.401 60.128 40.4039 60.1079 40.4137C60.0878 40.4236 60.0717 40.4399 60.062 40.46Z" fill="white"/>
</g>
<defs>
<clipPath id="clip0_5_5438">
<rect width="64" height="64" fill="white" transform="translate(0.00195312)"/>
</clipPath>
</defs>
</svg>
