<svg width="64" height="64" viewBox="0 0 64 64" fill="none" xmlns="http://www.w3.org/2000/svg">
<path d="M49.9062 20.255C52.4662 22.06 56.2411 25.21 59.2812 27.77C62.9511 30.86 62.3712 33.695 58.9262 36.545C54.9962 39.795 50.6462 43.655 46.5062 45.81C35.3512 51.615 22.0462 50.22 12.2612 42.365C9.87449 40.4484 7.50282 38.5167 5.14615 36.57C1.65115 33.685 1.01615 30.87 4.65615 27.825C8.68615 24.46 13.2262 20.435 17.4612 18.205C27.6512 12.85 40.4062 13.555 49.9062 20.255ZM44.6312 32C44.6312 28.6503 43.3005 25.4379 40.9319 23.0693C38.5633 20.7007 35.3508 19.37 32.0012 19.37C28.6515 19.37 25.439 20.7007 23.0704 23.0693C20.7018 25.4379 19.3712 28.6503 19.3712 32C19.3712 35.3497 20.7018 38.5622 23.0704 40.9308C25.439 43.2994 28.6515 44.63 32.0012 44.63C35.3508 44.63 38.5633 43.2994 40.9319 40.9308C43.3005 38.5622 44.6312 35.3497 44.6312 32ZM45.6212 22.14C45.4378 22.0134 45.4062 22.0434 45.5262 22.23C49.6662 28.6734 49.6995 35.14 45.6262 41.63C45.3928 42.0034 45.4545 42.0617 45.8112 41.805C49.9112 38.865 53.8595 35.7284 57.6562 32.395C57.7227 32.3359 57.7718 32.2595 57.7982 32.174C57.8247 32.0886 57.8274 31.9973 57.8062 31.91C57.6562 31.31 56.8362 30.95 56.5512 30.7C53.0978 27.6534 49.4545 24.8 45.6212 22.14ZM18.3262 41.535C14.4412 35.715 14.3612 28.365 18.2962 22.53C18.3253 22.4893 18.3384 22.4393 18.3332 22.3895C18.328 22.3397 18.3048 22.2936 18.2679 22.2598C18.231 22.2259 18.183 22.2068 18.1329 22.2059C18.0829 22.205 18.0342 22.2225 17.9962 22.255L6.43115 31.455C6.35813 31.5125 6.29885 31.5856 6.25762 31.6688C6.21639 31.7521 6.19425 31.8435 6.19282 31.9365C6.19138 32.0294 6.21068 32.1214 6.24932 32.206C6.28795 32.2905 6.34495 32.3653 6.41615 32.425C9.66282 35.155 12.8862 37.7767 16.0862 40.29C16.7528 40.8134 17.4628 41.27 18.2162 41.66C18.4128 41.7634 18.4495 41.7217 18.3262 41.535Z" fill="white"/>
<path d="M33.3211 23.98C33.4313 23.9816 33.5391 24.0122 33.6336 24.0689C33.7282 24.1256 33.806 24.2062 33.8593 24.3027C33.9126 24.3991 33.9395 24.5079 33.9372 24.6181C33.9348 24.7283 33.9034 24.8359 33.8461 24.93C31.7911 28.3 35.9261 31.94 39.3261 30.075C39.3903 30.0401 39.4623 30.0222 39.5353 30.0228C39.6084 30.0235 39.68 30.0427 39.7436 30.0788C39.8071 30.1148 39.8604 30.1664 39.8985 30.2287C39.9365 30.2911 39.9581 30.3621 39.9611 30.435C40.1711 34.7917 38.6178 37.71 35.3011 39.19C23.5061 44.46 18.4611 23.71 33.3211 23.98Z" fill="white"/>
</svg>
