<svg width="64" height="64" viewBox="0 0 64 64" fill="none" xmlns="http://www.w3.org/2000/svg">
<path d="M30.9206 0H32.6356C35.5023 0.35 37.4906 1.785 38.6006 4.305C38.6773 4.48167 38.8106 4.57167 39.0006 4.575L43.7306 4.645C44.0491 4.64882 44.3537 4.77655 44.5803 5.0013C44.8069 5.22604 44.9379 5.53029 44.9456 5.85L44.9956 8.145C44.9963 8.17891 45.0036 8.21236 45.0171 8.24338C45.0305 8.2744 45.05 8.30237 45.0742 8.32565C45.0984 8.34893 45.1269 8.36705 45.1581 8.37896C45.1892 8.39087 45.2224 8.39632 45.2556 8.395C52.1106 8.18 57.1306 8.155 57.1306 16.535C57.1239 29.9183 57.1239 43.3067 57.1306 56.7C57.1356 60.87 55.5556 63.43 51.1906 64H12.7556C8.23061 63.355 6.87061 60.74 6.87061 56.42C6.87727 43.1667 6.87894 29.9183 6.87561 16.675C6.87061 8.17 11.5906 8.325 18.6106 8.38C18.718 8.38 18.821 8.33786 18.897 8.26284C18.9729 8.18783 19.0156 8.08609 19.0156 7.98L19.0406 5.785C19.0432 5.47643 19.1682 5.18139 19.3883 4.96413C19.6083 4.74687 19.9057 4.62498 20.2156 4.625H24.8656C25.0289 4.625 25.1423 4.55167 25.2056 4.405C26.2923 1.95167 28.1973 0.483333 30.9206 0ZM41.6206 7.625C39.5556 7.635 36.1006 8.46 35.7956 5.405C35.7859 5.27494 35.737 5.15115 35.6556 5.05C32.7556 1.395 29.0606 2.53 27.5906 6.53C27.4736 6.85105 27.2607 7.12834 26.9807 7.32423C26.7008 7.52012 26.3673 7.62512 26.0256 7.625H22.3756C22.2089 7.625 22.1256 7.70833 22.1256 7.875V13.5C22.1256 13.6667 22.2089 13.75 22.3756 13.75H41.6256C41.7923 13.75 41.8756 13.6667 41.8756 13.5V7.875C41.8756 7.705 41.7906 7.62167 41.6206 7.625ZM54.1206 15.595C54.1206 13.985 53.4106 11.695 51.4656 11.555C49.6023 11.425 47.5773 11.3633 45.3906 11.37C45.3372 11.37 45.2844 11.3807 45.2352 11.4014C45.186 11.4221 45.1414 11.4525 45.1042 11.4907C45.0669 11.5289 45.0376 11.5742 45.0181 11.6239C44.9986 11.6735 44.9893 11.7266 44.9906 11.78C45.0456 13.54 45.6606 16.75 42.8856 16.75C35.4023 16.75 28.0239 16.75 20.7506 16.75C20.2865 16.75 19.8414 16.5656 19.5132 16.2374C19.185 15.9092 19.0006 15.4641 19.0006 15V11.635C19.0006 11.475 18.9206 11.3933 18.7606 11.39C15.7856 11.305 9.87061 10.465 9.87561 15.125C9.87894 29.2483 9.91061 43.3733 9.97061 57.5C9.98061 59.8067 11.1173 60.9683 13.3806 60.985C19.0106 61.0283 31.4973 61.0267 50.8406 60.98C53.3806 60.975 54.1256 59.16 54.1256 56.825C54.1289 43.0783 54.1273 29.335 54.1206 15.595Z" fill="white"/>
<path d="M19.3252 26.225C20.8319 24.8183 22.3402 23.41 23.8502 22C25.5952 20.365 27.4402 22.71 26.0602 24.055C24.0969 25.975 22.1269 27.8367 20.1502 29.64C19.8679 29.8979 19.4982 30.0391 19.1152 30.0354C18.7322 30.0317 18.3642 29.8833 18.0852 29.62C17.0919 28.6833 16.0969 27.695 15.1002 26.655C13.5902 25.09 15.4452 22.77 17.0602 24.39C17.6769 25.01 18.2986 25.6217 18.9252 26.225C19.0586 26.3517 19.1919 26.3517 19.3252 26.225Z" fill="white"/>
<path d="M47.9556 25.13H30.5356C29.6962 25.13 29.0156 25.8105 29.0156 26.65V26.72C29.0156 27.5595 29.6962 28.24 30.5356 28.24H47.9556C48.7951 28.24 49.4756 27.5595 49.4756 26.72V26.65C49.4756 25.8105 48.7951 25.13 47.9556 25.13Z" fill="white"/>
<path d="M18.8706 38.38C18.8986 38.4157 18.9337 38.4451 18.9737 38.4664C19.0137 38.4877 19.0577 38.5005 19.1029 38.5038C19.1481 38.5071 19.1935 38.5009 19.2361 38.4856C19.2788 38.4703 19.3178 38.4462 19.3506 38.415C20.8473 36.9916 22.3706 35.575 23.9206 34.165C24.7673 33.395 25.5506 33.4333 26.2706 34.28C26.4988 34.5493 26.6151 34.8959 26.5956 35.2484C26.5761 35.6009 26.4222 35.9325 26.1656 36.175L20.0756 41.93C19.8258 42.1642 19.4955 42.2934 19.1537 42.2906C18.8119 42.2878 18.4848 42.1533 18.2406 41.915C17.294 40.9883 16.269 40.0066 15.1656 38.97C14.1806 38.04 14.3256 36.095 15.9056 36.065C16.9256 36.045 18.3006 37.645 18.8706 38.38Z" fill="white"/>
<path d="M48.0155 37.375H30.4655C29.6564 37.375 29.0005 38.0309 29.0005 38.84V38.91C29.0005 39.7191 29.6564 40.375 30.4655 40.375H48.0155C48.8246 40.375 49.4805 39.7191 49.4805 38.91V38.84C49.4805 38.0309 48.8246 37.375 48.0155 37.375Z" fill="white"/>
<path d="M19.3354 50.6C20.8354 49.1867 22.3388 47.7784 23.8454 46.375C25.4804 44.85 27.5404 46.92 26.0304 48.42C24.0838 50.35 22.1071 52.2334 20.1004 54.07C19.8362 54.3127 19.4901 54.4468 19.1308 54.4459C18.7714 54.445 18.4251 54.309 18.1604 54.065C17.1604 53.145 13.8554 50.5 14.7254 48.965C15.9204 46.855 18.0954 49.815 18.9304 50.6C19.0638 50.7267 19.1988 50.7267 19.3354 50.6Z" fill="white"/>
<path d="M47.9556 49.505H30.5356C29.6962 49.505 29.0156 50.1855 29.0156 51.025V51.095C29.0156 51.9345 29.6962 52.615 30.5356 52.615H47.9556C48.7951 52.615 49.4756 51.9345 49.4756 51.095V51.025C49.4756 50.1855 48.7951 49.505 47.9556 49.505Z" fill="white"/>
</svg>
