<svg width="64" height="64" viewBox="0 0 64 64" fill="none" xmlns="http://www.w3.org/2000/svg">
<g clip-path="url(#clip0_5_5445)">
<path d="M48.4165 0H49.6515C58.1815 1.07 62.9648 5.87167 64.0015 14.405V15.77C63.6715 19.7067 62.2648 22.9183 59.7815 25.405C48.4715 36.7217 37.1565 48.03 25.8365 59.33C22.9431 62.2167 19.4448 63.7733 15.3415 64H14.3515C5.93147 62.95 1.14813 58.2317 0.00146484 49.845V47.98C0.414798 44.1233 1.9248 40.8917 4.53147 38.285C15.8848 26.925 27.2415 15.57 38.6015 4.22C41.1348 1.68667 44.4065 0.28 48.4165 0ZM34.7315 13.575L50.4915 29.28C50.5036 29.2922 50.518 29.302 50.5338 29.3086C50.5497 29.3152 50.5668 29.3187 50.584 29.3187C50.6012 29.3187 50.6182 29.3152 50.6341 29.3086C50.65 29.302 50.6644 29.2922 50.6765 29.28L56.8315 23.1C58.9665 20.9566 60.1811 18.0712 60.2083 15.0783C60.2355 12.0854 59.073 9.23002 56.9765 7.14L56.8465 7.01C54.7492 4.92046 51.8897 3.7677 48.8968 3.80521C45.9039 3.84271 43.0225 5.06741 40.8865 7.21L34.7315 13.39C34.7192 13.4021 34.7095 13.4165 34.7029 13.4324C34.6962 13.4483 34.6928 13.4653 34.6928 13.4825C34.6928 13.4997 34.6962 13.5167 34.7029 13.5326C34.7095 13.5485 34.7192 13.5629 34.7315 13.575ZM47.7078 32.2298C47.7384 32.1992 47.7627 32.1628 47.7793 32.1227C47.7959 32.0827 47.8044 32.0398 47.8044 31.9965C47.8044 31.9531 47.7959 31.9102 47.7793 31.8702C47.7627 31.8301 47.7384 31.7937 47.7078 31.7631L32.2434 16.2987C32.2127 16.2681 32.1763 16.2437 32.1363 16.2272C32.0963 16.2106 32.0534 16.202 32.01 16.202C31.9667 16.202 31.9238 16.2106 31.8837 16.2272C31.8437 16.2437 31.8073 16.2681 31.7767 16.2987L16.3052 31.7702C16.2745 31.8008 16.2502 31.8372 16.2336 31.8773C16.217 31.9173 16.2085 31.9602 16.2085 32.0036C16.2085 32.0469 16.217 32.0898 16.2336 32.1298C16.2502 32.1699 16.2745 32.2063 16.3052 32.2369L31.7696 47.7013C31.8002 47.7319 31.8366 47.7563 31.8766 47.7728C31.9167 47.7894 31.9596 47.798 32.0029 47.798C32.0463 47.798 32.0892 47.7894 32.1292 47.7728C32.1692 47.7563 32.2056 47.7319 32.2363 47.7013L47.7078 32.2298ZM29.1815 50.335L13.6265 34.835C13.6 34.8082 13.5684 34.787 13.5337 34.7725C13.4989 34.758 13.4616 34.7505 13.424 34.7505C13.3863 34.7505 13.349 34.758 13.3143 34.7725C13.2795 34.787 13.248 34.8082 13.2215 34.835L7.21646 40.865C5.07068 43.0187 3.84575 45.9141 3.81105 48.9145C3.77636 51.915 4.93475 54.7748 7.03147 56.865L7.17146 57.005C9.2689 59.0948 12.1328 60.2435 15.1333 60.1984C18.1338 60.1534 21.0252 58.9184 23.1715 56.765L29.1815 50.74C29.2082 50.7135 29.2295 50.682 29.244 50.6472C29.2585 50.6124 29.2659 50.5752 29.2659 50.5375C29.2659 50.4998 29.2585 50.4626 29.244 50.4278C29.2295 50.393 29.2082 50.3615 29.1815 50.335Z" fill="white"/>
<path d="M32.0164 25.895C33.0354 25.895 33.8614 25.0689 33.8614 24.05C33.8614 23.031 33.0354 22.205 32.0164 22.205C30.9974 22.205 30.1714 23.031 30.1714 24.05C30.1714 25.0689 30.9974 25.895 32.0164 25.895Z" fill="white"/>
<path d="M24.0515 33.85C25.0705 33.85 25.8965 33.024 25.8965 32.005C25.8965 30.9861 25.0705 30.16 24.0515 30.16C23.0326 30.16 22.2065 30.9861 22.2065 32.005C22.2065 33.024 23.0326 33.85 24.0515 33.85Z" fill="white"/>
<path d="M31.9466 33.855C32.9655 33.855 33.7916 33.029 33.7916 32.01C33.7916 30.9911 32.9655 30.165 31.9466 30.165C30.9276 30.165 30.1016 30.9911 30.1016 32.01C30.1016 33.029 30.9276 33.855 31.9466 33.855Z" fill="white"/>
<path d="M39.9513 33.825C40.9675 33.825 41.7913 33.0012 41.7913 31.985C41.7913 30.9688 40.9675 30.145 39.9513 30.145C38.9351 30.145 38.1113 30.9688 38.1113 31.985C38.1113 33.0012 38.9351 33.825 39.9513 33.825Z" fill="white"/>
<path d="M32.0216 41.79C33.0378 41.79 33.8616 40.9662 33.8616 39.95C33.8616 38.9338 33.0378 38.11 32.0216 38.11C31.0054 38.11 30.1816 38.9338 30.1816 39.95C30.1816 40.9662 31.0054 41.79 32.0216 41.79Z" fill="white"/>
</g>
<defs>
<clipPath id="clip0_5_5445">
<rect width="64" height="64" fill="white" transform="translate(0.00146484)"/>
</clipPath>
</defs>
</svg>
