<svg width="24" height="24" viewBox="0 0 24 24" fill="none" xmlns="http://www.w3.org/2000/svg">
<path d="M12 11.4C11.1475 11.4 10.33 11.0839 9.72716 10.5213C9.12436 9.95871 8.78571 9.19565 8.78571 8.4C8.78571 7.60435 9.12436 6.84129 9.72716 6.27868C10.33 5.71607 11.1475 5.4 12 5.4C12.8525 5.4 13.67 5.71607 14.2728 6.27868C14.8756 6.84129 15.2143 7.60435 15.2143 8.4C15.2143 8.79397 15.1311 9.18407 14.9696 9.54805C14.8081 9.91203 14.5713 10.2427 14.2728 10.5213C13.9744 10.7999 13.62 11.0209 13.2301 11.1716C12.8401 11.3224 12.4221 11.4 12 11.4ZM12 0C9.61305 0 7.32387 0.884997 5.63604 2.4603C3.94821 4.03561 3 6.17218 3 8.4C3 14.7 12 24 12 24C12 24 21 14.7 21 8.4C21 6.17218 20.0518 4.03561 18.364 2.4603C16.6761 0.884997 14.3869 0 12 0Z" fill="#009B6F"/>
</svg>
