<svg width="33" height="28" viewBox="0 0 33 28" fill="none" xmlns="http://www.w3.org/2000/svg">
<path d="M7.53517 28C11.3028 28 14.4709 25.4312 14.4709 21.7492C14.4709 14.5566 5.05199 17.7248 5.05199 12.0734C5.05199 8.56269 7.79205 3.93884 13.1865 0.770642L12.5872 0C4.53823 4.19572 0 11.5596 0 18.581C0 24.318 3.08257 28 7.53517 28ZM25.5168 28C29.37 28 32.4526 25.4312 32.4526 21.7492C32.4526 14.5566 23.1193 17.7248 23.1193 12.0734C23.1193 8.56269 25.8593 3.93884 31.2538 0.770642L30.6544 0C22.6055 4.19572 18.0673 11.5596 18.0673 18.581C18.0673 24.318 21.1498 28 25.5168 28Z" fill="#00E4A3"/>
</svg>
