<svg width="33" height="28" viewBox="0 0 33 28" fill="none" xmlns="http://www.w3.org/2000/svg">
<path d="M24.917 0C21.1494 0 17.9812 2.56881 17.9812 6.25076C17.9812 13.4434 27.4002 10.2752 27.4002 15.9266C27.4002 19.4373 24.6601 24.0612 19.2656 27.2294L19.865 28C27.9139 23.8043 32.4521 16.4404 32.4521 9.41896C32.4521 3.68196 29.3696 0 24.917 0ZM6.93533 0C3.08212 0 -0.000450134 2.56881 -0.000450134 6.25076C-0.000450134 13.4434 9.33288 10.2752 9.33288 15.9266C9.33288 19.4373 6.59282 24.0612 1.19833 27.2294L1.79771 28C9.84664 23.8043 14.3849 16.4404 14.3849 9.41896C14.3849 3.68196 11.3023 0 6.93533 0Z" fill="#00E4A3"/>
</svg>
