<svg width="20" height="20" viewBox="0 0 20 20" fill="none" xmlns="http://www.w3.org/2000/svg">
<g clip-path="url(#clip0_5_1677)">
<path d="M0 10.0004C0 8.84043 0.226667 7.73376 0.68 6.68043C1.13333 5.6271 1.74 4.71376 2.5 3.94043C3.26 3.1671 4.17333 2.56043 5.24 2.12043C6.30667 1.68043 7.42 1.45376 8.58 1.44043C9.74 1.44043 10.8467 1.6671 11.9 2.12043C12.9533 2.57376 13.8667 3.18043 14.64 3.94043C15.4133 4.70043 16.02 5.61376 16.46 6.68043C16.9 7.7471 17.1267 8.85376 17.14 10.0004H18.58C18.8867 10.0004 19.1533 10.0871 19.38 10.2604C19.6067 10.4338 19.7733 10.6471 19.88 10.9004C19.9867 11.1538 20.02 11.4204 19.98 11.7004C19.94 11.9804 19.8067 12.2271 19.58 12.4404L16.72 15.3004C16.44 15.5804 16.1067 15.7204 15.72 15.7204C15.3333 15.7204 14.9933 15.5804 14.7 15.3004L11.84 12.4404C11.6267 12.2271 11.5 11.9804 11.46 11.7004C11.42 11.4204 11.4467 11.1538 11.54 10.9004C11.6333 10.6471 11.8 10.4338 12.04 10.2604C12.28 10.0871 12.5533 10.0004 12.86 10.0004H14.28C14.28 8.97376 14.0267 8.02043 13.52 7.14043C13.0133 6.26043 12.32 5.5671 11.44 5.06043C10.56 4.55376 9.60667 4.30043 8.58 4.30043C7.55333 4.30043 6.59333 4.55376 5.7 5.06043C4.80667 5.5671 4.11333 6.26043 3.62 7.14043C3.12667 8.02043 2.87333 8.97376 2.86 10.0004C2.84667 11.0271 3.1 11.9871 3.62 12.8804C4.14 13.7738 4.83333 14.4671 5.7 14.9604C6.56667 15.4538 7.52667 15.7071 8.58 15.7204C9.3 15.7204 10 15.5871 10.68 15.3204L12.82 17.4404C11.5133 18.2004 10.1 18.5804 8.58 18.5804C7.40667 18.5804 6.29333 18.3538 5.24 17.9004C4.18667 17.4471 3.27333 16.8404 2.5 16.0804C1.72667 15.3204 1.12 14.4071 0.68 13.3404C0.24 12.2738 0.0133333 11.1604 0 10.0004Z" fill="white"/>
</g>
<defs>
<clipPath id="clip0_5_1677">
<rect width="20" height="20" fill="white"/>
</clipPath>
</defs>
</svg>
