<svg width="20" height="20" viewBox="0 0 20 20" fill="none" xmlns="http://www.w3.org/2000/svg">
<g clip-path="url(#clip0_5_1668)">
<path d="M20 10.0004C20 8.84043 19.7733 7.73376 19.32 6.68043C18.8667 5.6271 18.26 4.71376 17.5 3.94043C16.74 3.1671 15.8267 2.56043 14.76 2.12043C13.6933 1.68043 12.58 1.45376 11.42 1.44043C10.26 1.44043 9.15333 1.6671 8.1 2.12043C7.04667 2.57376 6.13333 3.18043 5.36 3.94043C4.58667 4.70043 3.98 5.61376 3.54 6.68043C3.1 7.7471 2.87333 8.85376 2.86 10.0004H1.42C1.11333 10.0004 0.846666 10.0871 0.620001 10.2604C0.393333 10.4338 0.226665 10.6471 0.119999 10.9004C0.0133324 11.1538 -0.0200005 11.4204 0.0200005 11.7004C0.0599995 11.9804 0.193335 12.2271 0.42 12.4404L3.28 15.3004C3.56 15.5804 3.89333 15.7204 4.28 15.7204C4.66667 15.7204 5.00667 15.5804 5.3 15.3004L8.16 12.4404C8.37333 12.2271 8.5 11.9804 8.54 11.7004C8.58 11.4204 8.55333 11.1538 8.46 10.9004C8.36667 10.6471 8.2 10.4338 7.96 10.2604C7.72 10.0871 7.44667 10.0004 7.14 10.0004H5.72C5.72 8.97376 5.97333 8.02043 6.48 7.14043C6.98667 6.26043 7.68 5.5671 8.56 5.06043C9.44 4.55376 10.3933 4.30043 11.42 4.30043C12.4467 4.30043 13.4067 4.55376 14.3 5.06043C15.1933 5.5671 15.8867 6.26043 16.38 7.14043C16.8733 8.02043 17.1267 8.97376 17.14 10.0004C17.1533 11.0271 16.9 11.9871 16.38 12.8804C15.86 13.7738 15.1667 14.4671 14.3 14.9604C13.4333 15.4538 12.4733 15.7071 11.42 15.7204C10.7 15.7204 10 15.5871 9.32 15.3204L7.18 17.4404C8.48667 18.2004 9.9 18.5804 11.42 18.5804C12.5933 18.5804 13.7067 18.3538 14.76 17.9004C15.8133 17.4471 16.7267 16.8404 17.5 16.0804C18.2733 15.3204 18.88 14.4071 19.32 13.3404C19.76 12.2738 19.9867 11.1604 20 10.0004Z" fill="white"/>
</g>
<defs>
<clipPath id="clip0_5_1668">
<rect width="20" height="20" fill="white" transform="matrix(-1 0 0 1 20 0)"/>
</clipPath>
</defs>
</svg>
