<svg width="20" height="20" viewBox="0 0 20 20" fill="none" xmlns="http://www.w3.org/2000/svg">
<g clip-path="url(#clip0_5_1615)">
<path d="M19.7571 3.15893C19.604 3.03511 19.4023 2.98728 19.2098 3.0285C19.2039 3.02976 18.6063 3.15537 17.6702 3.15537C15.7841 3.15537 12.9978 2.67372 10.435 0.379195C10.1873 0.157456 9.8127 0.157456 9.56496 0.379195C7.0023 2.67363 4.21596 3.15532 2.32978 3.15537C1.39352 3.15537 0.796217 3.02976 0.791783 3.0288C0.598783 2.9865 0.397217 3.03393 0.243348 3.15776C0.0894783 3.28154 0 3.46841 0 3.66589C0 9.89563 1.92626 13.7322 3.54222 15.8538C5.75109 18.7538 8.32644 19.7871 10 19.7871C11.6736 19.7871 14.249 18.7538 16.4578 15.8538C18.0737 13.7322 20 9.89559 20 3.66589C20 3.46893 19.9103 3.28272 19.7571 3.15893ZM15.3078 8.19698L9.47513 14.0296C9.34778 14.157 9.18087 14.2207 9.014 14.2207C8.84713 14.2207 8.68017 14.157 8.55287 14.0296L5.214 10.6908C4.9593 10.4361 4.9593 10.0232 5.214 9.76846C5.46865 9.51376 5.88161 9.51376 6.1363 9.76846L9.01404 12.6462L14.3856 7.27467C14.6402 7.02002 15.0532 7.01998 15.3079 7.27467C15.5625 7.52937 15.5625 7.94228 15.3078 8.19698Z" fill="white"/>
</g>
<defs>
<clipPath id="clip0_5_1615">
<rect width="20" height="20" fill="white"/>
</clipPath>
</defs>
</svg>
