<svg width="16" height="15" viewBox="0 0 16 15" fill="none" xmlns="http://www.w3.org/2000/svg">
<g clip-path="url(#clip0_5_6082)">
<path d="M13.8574 6.73366L6.67533 13.9154C6.55112 14.0399 6.33396 14.0399 6.20944 13.9154L1.81142 9.51735C1.61833 9.32426 1.30564 9.32426 1.11257 9.51735C0.919507 9.71028 0.919507 10.0233 1.11257 10.2162L5.51062 14.6142C5.75954 14.8633 6.09051 15.0004 6.44258 15.0004C6.79466 15.0004 7.12563 14.8633 7.37439 14.6142L14.5563 7.43251C14.7494 7.23958 14.7494 6.92657 14.5563 6.73366C14.3632 6.5406 14.0505 6.5406 13.8574 6.73366Z" fill="#009B6F"/>
<path d="M5.77329 13.0545C6.09487 13.3763 6.61645 13.3763 6.93818 13.0545L14.12 5.87263C14.4732 5.51942 14.6319 4.8489 14.4748 4.37493L13.6747 1.96306C13.5176 1.4891 13.0029 0.98663 12.5251 0.840675L9.94296 0.0525384C9.46539 -0.0932552 8.79188 0.0747735 8.43868 0.428005L1.37497 7.49143C1.0534 7.81317 1.0534 8.33459 1.37497 8.65633L5.77329 13.0545ZM10.3415 2.34034C10.8242 1.85762 11.6066 1.85762 12.0891 2.34034C12.5718 2.82305 12.5718 3.60542 12.0891 4.08811C11.6064 4.57082 10.824 4.57082 10.3415 4.08811C9.85895 3.60542 9.85895 2.82305 10.3415 2.34034Z" fill="#009B6F"/>
</g>
<defs>
<clipPath id="clip0_5_6082">
<rect width="15" height="15" fill="white" transform="translate(0.333008)"/>
</clipPath>
</defs>
</svg>
