<svg width="16" height="15" viewBox="0 0 16 15" fill="none" xmlns="http://www.w3.org/2000/svg">
<g clip-path="url(#clip0_5_6064)">
<path d="M8.33314 7.50009C9.36856 7.50009 10.2523 7.13375 10.9847 6.40138C11.7171 5.66901 12.0833 4.78525 12.0833 3.74996C12.0833 2.71484 11.7171 1.83104 10.9847 1.0985C10.2521 0.366167 9.36829 0 8.33314 0C7.29798 0 6.41405 0.366167 5.68172 1.0985C4.94924 1.83104 4.58301 2.7148 4.58301 3.74996C4.58301 4.78525 4.94924 5.66901 5.68172 6.40138C6.41426 7.13375 7.29795 7.50009 8.33314 7.50009Z" fill="#009B6F"/>
<path d="M15.174 11.46C15.1511 11.1313 15.1055 10.7764 15.0373 10.3955C14.9689 10.0146 14.8825 9.66157 14.7783 9.3359C14.6741 9.01047 14.5341 8.69304 14.3584 8.38376C14.1826 8.07451 13.9808 7.81089 13.7528 7.59269C13.5248 7.37457 13.2465 7.20053 12.918 7.07035C12.5891 6.9402 12.2261 6.875 11.8289 6.875C11.7704 6.875 11.6336 6.94498 11.4188 7.08499C11.2041 7.22499 10.9615 7.38127 10.6913 7.55387C10.4212 7.72616 10.0694 7.88255 9.63666 8.02231C9.20369 8.16231 8.76918 8.23233 8.33282 8.23233C7.89664 8.23233 7.46209 8.16231 7.02919 8.02231C6.59632 7.88255 6.24466 7.72616 5.97447 7.55387C5.70432 7.38127 5.46184 7.22502 5.24703 7.08499C5.03212 6.94498 4.89547 6.875 4.83687 6.875C4.43975 6.875 4.07676 6.9402 3.74802 7.07035C3.4192 7.20053 3.14091 7.3747 2.913 7.59269C2.68516 7.81089 2.48331 8.07451 2.3076 8.38376C2.13189 8.69304 1.99192 9.01061 1.88773 9.3359C1.78357 9.66157 1.69727 10.0146 1.62893 10.3955C1.56052 10.7764 1.51496 11.1311 1.49214 11.46C1.46936 11.7889 1.45801 12.1259 1.45801 12.4709C1.45801 13.252 1.6957 13.8691 2.17091 14.3216C2.64623 14.7739 3.2778 15 4.06554 15H12.6009C13.3886 15 14.0201 14.7739 14.4954 14.3216C14.9709 13.8691 15.2085 13.2521 15.2085 12.4709C15.2084 12.1259 15.197 11.7889 15.174 11.46Z" fill="#009B6F"/>
</g>
<defs>
<clipPath id="clip0_5_6064">
<rect width="15" height="15" fill="white" transform="translate(0.833008)"/>
</clipPath>
</defs>
</svg>
